<svg width="16" height="16" viewBox="0 0 16 16" fill="none" xmlns="http://www.w3.org/2000/svg">
<path d="M7.50586 15.0117C6.47461 15.0117 5.50195 14.8125 4.58789 14.4141C3.67383 14.0273 2.87695 13.4941 2.19727 12.8145C1.51758 12.1348 0.984375 11.3379 0.597656 10.4238C0.199219 9.50977 0 8.53711 0 7.50586C0 6.47461 0.199219 5.50195 0.597656 4.58789C0.984375 3.67383 1.51758 2.87695 2.19727 2.19727C2.87695 1.51758 3.67383 0.984375 4.58789 0.597656C5.50195 0.199219 6.47461 0 7.50586 0C8.53711 0 9.50977 0.199219 10.4238 0.597656C11.3379 0.984375 12.1348 1.51758 12.8145 2.19727C13.4941 2.87695 14.0273 3.67383 14.4141 4.58789C14.8125 5.50195 15.0117 6.47461 15.0117 7.50586C15.0117 8.53711 14.8125 9.50977 14.4141 10.4238C14.0273 11.3379 13.4941 12.1348 12.8145 12.8145C12.1348 13.4941 11.3379 14.0273 10.4238 14.4141C9.50977 14.8125 8.53711 15.0117 7.50586 15.0117ZM5.625 5.25586L3.76172 7.13672L7.50586 10.8809L11.25 7.13672L9.38672 5.25586H5.625Z" fill="#B4BAE9"/>
</svg>
